<svg xmlns="http://www.w3.org/2000/svg" width="350" height="691" viewBox="0 0 350 691" fill="none">
<g clip-path="url(#clip0)">
<path fill-rule="evenodd" clip-rule="evenodd" d="M229.751 65.6342C229.751 65.6342 247.504 62.8743 252.396 81.6206C269.689 87.7095 265.181 106.553 265.181 106.553C265.181 106.553 273.986 121.228 256.874 128.967C255.653 144.109 238.435 141.534 238.435 141.534C238.435 141.534 234.429 153.265 221.315 148.586C207.331 159.695 180.743 157.765 171.174 144.458C152.615 158.611 119.894 141.902 123.846 129.114C101.99 128.015 91.164 104.955 103.761 85.1451C93.7711 69.6787 104.884 60.3777 104.884 60.3777C104.884 60.3777 101.425 24.6533 126.129 19.5874C138.654 0.204298 166.316 15.3945 166.316 15.3945C166.316 15.3945 184.499 11.4266 191.192 27.1749C211.584 30.0997 210.744 41.3023 212.407 50.6831C230.638 51.5288 229.751 65.6342 229.751 65.6342Z" fill="#FC63A4"/>
<path fill-rule="evenodd" clip-rule="evenodd" d="M173.075 48.7524C158.824 51.4045 154.375 40.6454 154.375 40.6454C154.375 40.6454 148.328 25.493 146.916 34.8473C146.164 39.8189 138.422 33.312 134.947 38.6388C132.611 42.2263 138.593 46.7528 130.974 56.3278C126.562 61.8741 144.238 66.0843 133.464 76.3349C133.464 76.3349 141.326 88.6327 128.081 92.8048L126.821 107.332C126.087 115.786 132.809 123.027 141.293 122.928L141.294 122.928C149.385 122.832 155.799 116.073 155.471 107.989L154.752 90.2998C175.38 90.0891 176.097 61.727 173.075 48.7524Z" fill="#FFC999"/>
<path d="M146.911 64.1147C147.265 63.7533 147.845 63.7474 148.206 64.1014L148.313 64.199C148.36 64.2407 148.419 64.291 148.489 64.349L148.603 64.4416C148.955 64.7224 149.369 65.0133 149.842 65.2969C151.963 66.5695 154.443 67.2501 157.201 66.9548C157.704 66.9009 158.156 67.265 158.21 67.7681C158.263 68.2711 157.899 68.7225 157.396 68.7764C154.205 69.1181 151.34 68.3317 148.9 66.868C147.96 66.3044 147.293 65.7715 146.924 65.4101C146.563 65.056 146.557 64.4761 146.911 64.1147Z" fill="#F5222D"/>
<path d="M158.023 49.7662C158.346 49.7859 158.6 50.0379 158.632 50.3498L158.635 50.6405C158.638 50.7269 158.645 50.8377 158.659 50.9724C158.705 51.4423 158.808 51.9959 158.984 52.6279C159.494 54.464 160.496 56.545 162.123 58.8265C162.339 59.1295 162.258 59.5516 161.944 59.7526L161.004 60.3504C159.785 61.1167 158.71 61.761 157.776 62.2925L157.433 62.4865C157.085 62.6813 156.778 62.8482 156.511 62.9889L155.938 63.2808C155.613 63.4348 155.225 63.2962 155.071 62.9712C154.917 62.6462 155.056 62.258 155.381 62.104L155.72 61.9329L156.105 61.73C156.313 61.6186 156.543 61.4923 156.796 61.3504L157.484 60.9588C158.199 60.5461 158.993 60.0694 159.868 59.5249L160.672 59.0188L160.45 58.69C159.187 56.7752 158.34 54.9867 157.839 53.3515L157.729 52.9768C157.391 51.7599 157.303 50.8764 157.334 50.3765C157.356 50.0175 157.664 49.7443 158.023 49.7662Z" fill="#DD936F"/>
<path d="M148.438 49.6911C148.925 49.6861 149.323 50.0763 149.328 50.5626C149.363 53.9478 146.842 56.7473 143.661 56.7789C140.477 56.8119 137.9 54.065 137.866 50.6789C137.861 50.1926 138.251 49.7943 138.737 49.7894C139.223 49.7844 139.622 50.1745 139.627 50.6608C139.652 53.106 141.466 55.0405 143.643 55.0179C145.817 54.9963 147.592 53.0249 147.567 50.5806C147.562 50.0943 147.952 49.6961 148.438 49.6911Z" fill="#253368"/>
<path d="M170.674 50.0678C171.136 50.063 171.514 50.4335 171.518 50.8952C171.553 54.2404 169.291 57.0322 166.38 57.0612C163.468 57.0921 161.15 54.3475 161.116 51.0021C161.111 50.5404 161.481 50.1623 161.943 50.1576C162.405 50.1528 162.783 50.5233 162.788 50.9849C162.813 53.4696 164.452 55.4096 166.363 55.3893C168.273 55.3703 169.872 53.3966 169.847 50.9123C169.842 50.4506 170.212 50.0725 170.674 50.0678Z" fill="#253368"/>
<path d="M140.487 39.6003C143.534 38.8688 146.597 39.2438 149.369 40.232C150.029 40.4674 150.513 40.6815 150.789 40.8232C151.221 41.0457 151.391 41.5766 151.169 42.009C150.946 42.4414 150.415 42.6116 149.983 42.389L149.769 42.2879L149.684 42.2499C149.422 42.1343 149.119 42.0125 148.777 41.8908C146.3 41.0075 143.564 40.6726 140.898 41.3127C139.72 41.5954 138.597 42.0652 137.539 42.7416C137.129 43.0035 136.585 42.8836 136.323 42.4738C136.061 42.064 136.181 41.5195 136.591 41.2577C137.817 40.4738 139.122 39.928 140.487 39.6003Z" fill="#253368"/>
<path d="M141.504 86.9244C141.672 86.6068 142.066 86.486 142.384 86.6545C146.411 88.7916 150.571 89.8436 154.736 89.8576C155.095 89.8588 155.386 90.1513 155.385 90.5109C155.384 90.8705 155.091 91.161 154.731 91.1598C150.355 91.1452 145.986 90.0405 141.774 87.8048C141.456 87.6362 141.335 87.2421 141.504 86.9244Z" fill="#DD936F"/>
<path fill-rule="evenodd" clip-rule="evenodd" d="M226.891 234.597L225.989 234.952C217.447 238.321 207.792 234.125 204.422 225.583L172.905 145.655C169.538 137.112 173.732 127.456 182.274 124.087L183.175 123.732C191.717 120.363 201.374 124.558 204.742 133.101L236.26 213.03C239.629 221.573 235.433 231.228 226.891 234.597Z" fill="#FFC999"/>
<path fill-rule="evenodd" clip-rule="evenodd" d="M217.734 155.904L199.002 124.191C194.486 116.547 184.161 114.207 176.057 118.994C167.954 123.78 165.02 133.951 169.536 141.596L188.091 173.007L217.734 155.904Z" fill="#7194D0"/>
<path d="M198.914 124.431C199.116 124.315 199.366 124.361 199.514 124.529L199.571 124.608L217.94 156.533C218.056 156.736 218.009 156.988 217.838 157.136L217.758 157.192L187.922 173.955C187.69 174.086 187.397 174.003 187.267 173.772C187.153 173.569 187.201 173.319 187.371 173.173L187.45 173.116L216.863 156.591L198.737 125.088C198.621 124.886 198.667 124.636 198.835 124.487L198.914 124.431Z" fill="#4E5C93"/>
<path fill-rule="evenodd" clip-rule="evenodd" d="M294.447 142.169C298.525 145.985 299.15 152.048 295.863 155.935L232.41 230.942C226.329 237.622 215.443 237.547 208.202 230.773C200.898 223.939 200.155 212.967 206.56 206.485L280.936 141.381C284.641 138.136 290.5 138.478 294.447 142.169Z" fill="#FFC999"/>
<path fill-rule="evenodd" clip-rule="evenodd" d="M309.422 155.513C309.422 155.513 292.326 161.117 284.702 152.635C277.797 144.953 284.067 137.87 284.067 137.87C284.067 137.87 289.081 129.737 297.931 123.842C303.76 119.958 315.707 113.765 318.469 116.735C322.068 120.61 306.309 124.586 308.018 127.985C309.772 131.473 311.906 132.138 319.758 132.061C324.665 132.012 329.883 130.313 334.125 131.064C342.418 132.534 335.974 149.307 309.422 155.513Z" fill="#FFC999"/>
<path d="M334.445 133.206C334.761 133.072 335.126 133.22 335.259 133.537C335.393 133.853 335.245 134.217 334.929 134.351C329.976 136.442 325.503 137.571 321.584 137.956C320.205 138.091 318.992 138.123 317.954 138.08L317.517 138.056C317.115 138.03 316.824 137.996 316.647 137.965C316.309 137.908 316.081 137.587 316.139 137.249C316.196 136.91 316.517 136.683 316.856 136.74L317.032 136.766C317.246 136.792 317.572 136.82 318.007 136.838C318.987 136.879 320.142 136.849 321.463 136.719C325.258 136.346 329.608 135.248 334.445 133.206Z" fill="#DD936F"/>
<path d="M332.665 137.273C332.961 137.101 333.342 137.202 333.514 137.499C333.686 137.795 333.585 138.176 333.289 138.348L333.008 138.504C332.886 138.569 332.736 138.648 332.559 138.738C331.973 139.036 331.288 139.359 330.508 139.694C328.288 140.651 325.754 141.523 322.95 142.22C320.925 142.722 318.831 143.115 316.674 143.377C316.334 143.418 316.024 143.176 315.982 142.835C315.941 142.495 316.183 142.185 316.524 142.143C318.629 141.887 320.674 141.504 322.65 141.013C325.386 140.334 327.856 139.484 330.017 138.553L330.74 138.233C331.201 138.023 331.62 137.821 331.995 137.63L332.516 137.357C332.578 137.323 332.628 137.295 332.665 137.273Z" fill="#DD936F"/>
<path d="M327.941 143.321C328.263 143.203 328.62 143.368 328.738 143.69C328.856 144.012 328.691 144.369 328.369 144.488C324.146 146.037 320.699 147.029 317.968 147.576L317.275 147.708C316.611 147.828 316.034 147.91 315.541 147.96L315.227 147.989C315.133 147.997 315.05 148.002 314.978 148.006L314.723 148.014L314.489 147.966L314.122 147.823C314 147.778 313.854 147.725 313.687 147.666C310.903 146.691 307.658 146.005 304.426 146.039C300.725 146.078 297.581 147.09 295.217 149.29C294.966 149.524 294.572 149.51 294.339 149.259C294.105 149.007 294.119 148.614 294.37 148.38C296.986 145.945 300.426 144.838 304.413 144.796C307.812 144.76 311.189 145.474 314.098 146.494L314.688 146.708L314.842 146.768L315.139 146.75L315.414 146.724C316.032 146.661 316.799 146.543 317.724 146.358C320.39 145.824 323.775 144.849 327.941 143.321Z" fill="#DD936F"/>
<path d="M306.667 129.548C306.995 129.648 307.179 129.996 307.078 130.324L306.931 130.756L306.732 131.276C306.659 131.457 306.58 131.645 306.494 131.838C306.005 132.948 305.404 134.029 304.685 135.002C303.052 137.211 301.047 138.552 298.648 138.616C298.305 138.625 298.019 138.354 298.01 138.011C298.001 137.668 298.271 137.383 298.614 137.374C300.572 137.321 302.259 136.193 303.685 134.263C304.345 133.371 304.902 132.368 305.357 131.337C305.517 130.975 305.652 130.637 305.763 130.331L305.89 129.96C305.991 129.631 306.338 129.447 306.667 129.548Z" fill="#DD936F"/>
<path fill-rule="evenodd" clip-rule="evenodd" d="M106.574 611.9C114.224 612.233 120.773 606.466 121.409 598.836L135.016 435.619C135.996 423.862 127.002 413.649 115.215 413.137C103.426 412.624 93.5791 422.018 93.5354 433.816L92.931 597.598C92.9025 605.254 98.9245 611.568 106.574 611.9Z" fill="#FFC999"/>
<path fill-rule="evenodd" clip-rule="evenodd" d="M163.479 612.952C170.978 613.278 177.397 607.624 178.021 600.145L191.36 440.147C192.32 428.623 183.503 418.611 171.949 418.108C160.393 417.605 150.74 426.814 150.697 438.38L150.105 598.931C150.077 606.437 155.98 612.626 163.479 612.952Z" fill="#F8C8A1"/>
<path fill-rule="evenodd" clip-rule="evenodd" d="M103.495 258.132C117.372 257.282 129.227 268.023 129.747 281.916L135.333 431.277C135.762 442.78 126.933 452.526 115.443 453.229C103.953 453.932 94.0017 445.338 93.0242 433.867L80.3433 284.941C79.1635 271.089 89.6192 258.983 103.495 258.132Z" fill="#FFC999"/>
<path fill-rule="evenodd" clip-rule="evenodd" d="M161.882 268.132C175.489 267.385 187.043 277.987 187.467 291.609L192.017 438.055C192.367 449.334 183.652 458.833 172.384 459.451C161.117 460.069 151.415 451.583 150.528 440.332L139.02 294.268C137.95 280.682 148.274 268.88 161.882 268.132Z" fill="#F8C8A1"/>
<path fill-rule="evenodd" clip-rule="evenodd" d="M120.176 618.481L93.205 618.151L92.2077 575.471L123.173 575.851L120.176 618.481Z" fill="#92A8D1"/>
<path fill-rule="evenodd" clip-rule="evenodd" d="M177.738 617.545L150.767 617.215L149.77 574.536L180.736 574.915L177.738 617.545Z" fill="#92A8D1"/>
<path fill-rule="evenodd" clip-rule="evenodd" d="M121.851 614.908L92.1995 614.546L90.0358 668.843L156.849 669.659L157.114 661.323C157.201 658.259 155.08 655.572 152.078 654.946L134.406 649.515L125.356 644.214C122.631 642.619 121.006 639.664 121.126 636.506C121.388 629.721 121.818 618.213 121.851 614.908Z" fill="#4E5C93"/>
<path fill-rule="evenodd" clip-rule="evenodd" d="M179.414 613.973L149.762 613.611L147.599 667.908L214.412 668.724L214.677 660.388C214.764 657.323 212.643 654.636 209.641 654.011L191.969 648.579L182.919 643.279C180.194 641.684 178.569 638.728 178.689 635.571C178.951 628.786 179.381 617.278 179.414 613.973Z" fill="#4E5C93"/>
<path fill-rule="evenodd" clip-rule="evenodd" d="M147.388 668.713L214.07 669.259C214.701 669.266 215.221 668.749 215.232 668.109L215.354 660.518C215.365 659.877 214.862 659.354 214.228 659.349L147.548 658.802C146.916 658.796 146.395 659.312 146.386 659.954L146.261 667.543C146.251 668.184 146.756 668.707 147.388 668.713Z" fill="#2C436C"/>
<path fill-rule="evenodd" clip-rule="evenodd" d="M158.095 661.488C158.152 656.78 154.785 652.724 150.146 651.917L135.111 649.297L133.972 661.029L158.095 661.488Z" fill="#192F55"/>
<path fill-rule="evenodd" clip-rule="evenodd" d="M214.883 659.725C214.731 655.313 211.199 651.557 206.545 650.861L191.458 648.603L190.845 659.609L214.883 659.725Z" fill="#2C436C"/>
<path d="M119.732 634.019C120.212 633.924 120.678 634.236 120.773 634.716C120.868 635.196 120.556 635.662 120.076 635.756L119.884 635.798C119.658 635.851 119.336 635.938 118.941 636.061C118.056 636.338 117.148 636.7 116.272 637.157C115.627 637.493 115.029 637.865 114.488 638.275L114.394 638.348L114.681 638.395C115.136 638.472 115.626 638.566 116.149 638.675L116.546 638.759C117.765 639.023 119.028 639.339 120.215 639.66L121.575 640.04C122.32 640.259 122.443 641.263 121.772 641.655L121.532 641.805C121.366 641.913 121.149 642.064 120.89 642.257C120.304 642.691 119.698 643.2 119.094 643.783L118.732 644.142L118.514 644.368L118.699 644.373C119.185 644.387 119.69 644.417 120.215 644.461L120.745 644.511C122.312 644.67 123.955 644.942 125.587 645.286L126.235 645.426C126.748 645.54 127.194 645.647 127.558 645.739L127.97 645.847C128.858 646.088 128.82 647.328 127.981 647.553L127.708 647.606C127.579 647.633 127.401 647.678 127.183 647.745C126.626 647.915 126.046 648.162 125.478 648.499C124.584 649.029 123.805 649.73 123.189 650.628C122.913 651.032 122.362 651.135 121.959 650.858C121.555 650.582 121.452 650.031 121.728 649.628C122.42 648.618 123.276 647.809 124.247 647.179L124.575 646.976L124.689 646.909L124.435 646.859C123.385 646.654 122.338 646.483 121.322 646.358L120.567 646.273C119.065 646.121 117.731 646.09 116.621 646.2C115.849 646.276 115.359 645.393 115.832 644.778C116.346 644.111 116.894 643.485 117.469 642.901C117.996 642.365 118.528 641.88 119.053 641.447L119.298 641.249L118.871 641.136C118.276 640.982 117.67 640.832 117.068 640.692L116.171 640.49L115.437 640.337C114.135 640.076 113.078 639.928 112.361 639.919C111.607 639.909 111.209 639.022 111.703 638.453C112.702 637.302 113.98 636.355 115.453 635.587C116.429 635.078 117.433 634.677 118.413 634.371L118.831 634.245C119.222 634.133 119.53 634.059 119.732 634.019Z" fill="#192F55"/>
<path d="M178.023 633.681C178.503 633.586 178.968 633.898 179.063 634.378C179.158 634.857 178.846 635.323 178.366 635.418L178.174 635.46C177.949 635.513 177.627 635.599 177.232 635.723C176.347 635.999 175.438 636.362 174.562 636.819C173.918 637.155 173.32 637.527 172.778 637.936L172.684 638.01L172.971 638.057C173.427 638.134 173.917 638.227 174.439 638.336L174.837 638.421C176.056 638.685 177.319 639 178.506 639.322L179.865 639.702C180.611 639.92 180.733 640.925 180.062 641.316L179.822 641.466C179.657 641.575 179.44 641.726 179.18 641.918C178.595 642.353 177.989 642.862 177.384 643.445L177.022 643.804L176.804 644.03L176.99 644.034C177.475 644.049 177.981 644.078 178.505 644.123L179.035 644.173C180.602 644.331 182.246 644.604 183.878 644.947L184.525 645.087C185.038 645.202 185.485 645.308 185.848 645.401L186.261 645.508C187.149 645.75 187.111 646.99 186.272 647.215L185.998 647.268C185.869 647.295 185.691 647.34 185.474 647.406C184.916 647.577 184.337 647.824 183.769 648.161C182.874 648.691 182.095 649.392 181.48 650.29C181.204 650.693 180.653 650.796 180.249 650.52C179.846 650.244 179.743 649.693 180.019 649.289C180.71 648.28 181.567 647.471 182.538 646.841L182.866 646.637L182.98 646.571L182.725 646.52C181.675 646.315 180.628 646.144 179.613 646.019L178.857 645.934C177.356 645.783 176.021 645.752 174.911 645.861C174.14 645.937 173.65 645.055 174.123 644.44C174.636 643.773 175.185 643.147 175.759 642.562C176.287 642.026 176.818 641.542 177.344 641.108L177.588 640.911L177.162 640.798C176.566 640.643 175.96 640.493 175.359 640.353L174.462 640.152L173.728 639.998C172.426 639.737 171.368 639.589 170.651 639.58C169.897 639.571 169.499 638.684 169.993 638.115C170.992 636.963 172.271 636.016 173.744 635.248C174.72 634.739 175.724 634.339 176.703 634.032L177.121 633.907C177.512 633.795 177.82 633.721 178.023 633.681Z" fill="#192F55"/>
<path d="M120.314 626.081C120.221 626.046 120.123 626.027 120.024 626.024L119.592 626.021C119.496 626.021 119.389 626.022 119.27 626.024C118.681 626.033 118.022 626.059 117.308 626.108C115.266 626.249 113.183 626.544 111.174 627.038C104.941 628.57 100.72 631.648 99.8067 636.741C99.2863 639.645 100.409 641.26 102.777 641.107C104.438 640.999 106.707 640.019 109.524 638.333C110.58 637.701 111.697 636.979 112.862 636.179C114.604 634.985 116.366 633.68 118.061 632.358L119.072 631.561L120.141 630.695C120.198 630.648 120.246 630.609 120.282 630.578C120.382 630.522 120.646 630.325 120.928 630.067C121.251 629.772 121.521 629.461 121.716 629.126C122.423 627.914 121.947 626.698 120.314 626.081ZM119.296 627.795L119.831 627.792L119.922 627.828C120.284 627.972 120.306 628.018 120.216 628.181L120.186 628.234C120.094 628.392 119.935 628.576 119.732 628.761C119.533 628.943 119.342 629.085 119.233 629.156L117.967 630.177C117.655 630.426 117.323 630.688 116.972 630.961C115.304 632.263 113.569 633.547 111.861 634.719C110.724 635.498 109.637 636.202 108.615 636.813C106.027 638.362 103.959 639.256 102.663 639.339C101.559 639.411 101.216 638.917 101.55 637.053C102.311 632.808 105.969 630.141 111.597 628.758C113.498 628.29 115.483 628.009 117.429 627.875C118.111 627.828 118.738 627.803 119.296 627.795Z" fill="#192F55"/>
<path d="M178.847 624.896C178.754 624.861 178.656 624.842 178.557 624.839L178.126 624.836C178.03 624.836 177.922 624.837 177.803 624.839C177.214 624.848 176.555 624.874 175.841 624.923C173.799 625.064 171.716 625.359 169.707 625.853C163.474 627.385 159.253 630.462 158.34 635.555C157.82 638.46 158.942 640.075 161.31 639.922C162.971 639.814 165.24 638.834 168.057 637.148C169.113 636.516 170.231 635.793 171.396 634.994C173.137 633.8 174.899 632.495 176.595 631.173L177.605 630.376L178.674 629.51C178.732 629.463 178.779 629.424 178.815 629.393C178.915 629.336 179.179 629.14 179.461 628.882C179.784 628.587 180.054 628.276 180.249 627.941C180.956 626.729 180.48 625.513 178.847 624.896ZM177.829 626.61L178.364 626.607L178.455 626.643C178.817 626.786 178.839 626.833 178.749 626.996L178.719 627.049C178.627 627.207 178.468 627.391 178.266 627.575C178.066 627.758 177.875 627.9 177.766 627.971L176.5 628.992C176.188 629.241 175.856 629.503 175.505 629.776C173.837 631.078 172.102 632.362 170.394 633.534C169.257 634.313 168.17 635.017 167.148 635.628C164.56 637.177 162.492 638.071 161.196 638.154C160.092 638.226 159.749 637.732 160.083 635.868C160.844 631.623 164.502 628.956 170.13 627.573C172.031 627.105 174.016 626.824 175.963 626.69C176.644 626.643 177.272 626.618 177.829 626.61Z" fill="#192F55"/>
<path fill-rule="evenodd" clip-rule="evenodd" d="M175.448 233.173C189.945 236.107 241.398 313.749 264.185 339.12C261.622 345.567 207.798 384.433 207.798 384.433C207.798 384.433 208.292 389.876 208.606 393.147C194.86 401.894 170.02 404.523 170.02 404.523L169.411 409.075C128.613 422.14 78.9704 398.775 78.9704 398.775C78.9704 398.775 78.1263 397.67 79.2569 394.181C61.7416 391.834 26.9097 364.997 26.9097 364.997L33.5931 354.641L20.0792 336.948C20.0792 336.948 71.1621 265.315 86.6222 245.422C100.193 227.959 111.427 223.826 111.427 223.826C111.427 223.826 149.723 227.965 175.448 233.173Z" fill="#40496E"/>
<path d="M106.753 241.642C106.95 241.339 107.356 241.253 107.659 241.45C107.932 241.628 108.029 241.974 107.902 242.263L107.851 242.357L28.4912 364.339L28.9267 364.749L29.1448 364.952C30.0079 365.748 31.0325 366.654 32.2146 367.65C35.5961 370.5 39.5583 373.504 44.0683 376.525C54.5063 383.515 66.2342 389.505 79.0974 393.843C79.4403 393.958 79.6246 394.33 79.5089 394.673C79.3933 395.016 79.0216 395.2 78.6786 395.085C65.699 390.707 53.8687 384.665 43.3392 377.613C39.0912 374.769 35.3231 371.936 32.0613 369.23L31.3701 368.652C30.472 367.895 29.6628 367.189 28.9442 366.542L28.0328 365.708L27.1845 364.897C26.99 364.703 26.94 364.411 27.0499 364.166L27.0986 364.077L106.753 241.642Z" fill="#253368"/>
<path d="M180.694 277.437C181.01 277.36 181.329 277.526 181.452 277.817L181.486 277.918L209.805 393.73C209.878 394.028 209.735 394.336 209.459 394.473L209.069 394.66C208.752 394.81 208.38 394.982 207.953 395.174L207.007 395.593C206.027 396.02 204.943 396.472 203.765 396.941C199.279 398.724 194.335 400.386 189.078 401.766C182.792 403.417 176.479 404.551 170.256 405.037C169.895 405.065 169.58 404.796 169.552 404.435C169.524 404.074 169.793 403.759 170.154 403.731C176.294 403.251 182.531 402.131 188.745 400.499C193.947 399.132 198.841 397.488 203.281 395.723L204.413 395.266C205.331 394.89 206.18 394.527 206.958 394.183L208.111 393.662L208.406 393.524L180.213 278.229C180.135 277.913 180.302 277.594 180.592 277.471L180.694 277.437Z" fill="#253368"/>
<path d="M158.454 233.605C158.815 233.578 159.13 233.848 159.157 234.209L159.986 245.375C160.355 250.398 160.748 255.819 161.158 261.573L161.47 265.949C163.167 289.893 164.791 314.115 166.203 337.113L166.862 348.036C168.287 372.05 169.353 392.897 169.978 409.701C169.99 410.02 169.77 410.301 169.458 410.367C164.297 411.446 159.023 412.177 153.651 412.581C129.096 414.426 104.936 409.598 84.2941 401.83L83.1593 401.398C82.0549 400.971 81.0426 400.565 80.1268 400.183L78.906 399.665L78.0454 399.282C77.7771 399.158 77.6295 398.872 77.6732 398.589L77.6987 398.482L124.656 256.078C124.769 255.734 125.139 255.547 125.483 255.661C125.792 255.763 125.975 256.073 125.925 256.384L125.9 256.488L79.1281 398.331L80.1869 398.787L81.0921 399.165C82.1856 399.614 83.4092 400.097 84.7557 400.603C105.235 408.311 129.217 413.103 153.553 411.274C158.385 410.911 163.137 410.28 167.795 409.366L168.648 409.192L168.375 402.329C167.764 387.695 166.867 370.448 165.728 351.066L165.222 342.563L164.894 337.194C163.649 316.905 162.239 295.663 160.758 274.5L159.954 263.111C159.472 256.336 159.013 250.005 158.588 244.223L157.85 234.308C157.823 233.947 158.093 233.633 158.454 233.605Z" fill="#253368"/>
<path d="M142.644 234.208C142.964 234.266 143.188 234.547 143.183 234.863L143.173 234.969L121.495 355.528C121.431 355.884 121.09 356.121 120.734 356.057C120.414 355.999 120.19 355.717 120.195 355.402L120.205 355.296L141.883 234.737C141.947 234.381 142.288 234.144 142.644 234.208Z" fill="#253368"/>
<path d="M125.628 228.977C125.926 229.11 126.074 229.438 125.993 229.743L125.957 229.843L90.1496 309.44C90.0012 309.77 89.6133 309.917 89.2832 309.769C88.9862 309.635 88.8373 309.308 88.9187 309.003L88.9545 308.902L124.762 229.306C124.896 229.009 125.223 228.86 125.528 228.941L125.628 228.977Z" fill="#253368"/>
<path fill-rule="evenodd" clip-rule="evenodd" d="M108.448 224.984L110.574 216.753C110.574 216.753 145.846 222.982 178.446 225.316C178.812 229.131 176.675 233.936 176.675 233.936C174.225 231.367 143.994 234.306 108.448 224.984Z" fill="#4E5C93"/>
<path d="M173.274 232.861C173.635 232.888 173.906 233.203 173.879 233.564C173.852 233.925 173.537 234.195 173.176 234.168L169.796 233.908C155.751 232.803 142.224 231.413 130.206 229.92L128.772 229.741C124.494 229.201 120.64 228.675 117.547 228.217L115.237 227.865C114.282 227.715 113.484 227.582 112.883 227.474L112.666 227.434C112.297 227.366 112.022 227.31 111.845 227.266C111.73 227.238 111.649 227.214 111.576 227.182L111.526 227.17C111.467 227.148 111.421 227.084 111.19 226.768L111.32 226.348C111.461 225.908 111.5 225.909 111.692 225.914C111.833 225.883 111.974 225.901 112.096 225.957L112.167 225.995L112.59 226.086L113.348 226.225C114.067 226.352 115.031 226.509 116.182 226.686L118.292 227.002C121.277 227.439 124.918 227.934 128.936 228.441C142.237 230.119 157.482 231.677 173.274 232.861Z" fill="#253368"/>
<path fill-rule="evenodd" clip-rule="evenodd" d="M183.542 140.244C186.495 148.034 192.032 161.471 192.246 170.114C192.593 184.127 182.823 193.872 182.823 193.872C182.823 193.872 183.011 189.77 179.677 225.788C137.653 230.251 111.702 220.704 111.702 220.704L113.162 211.195L107.955 188.131C107.955 188.131 104.428 179.434 97.2877 160.081C92.3208 146.625 93.8287 130.466 95.2081 121.865C95.8002 118.18 98.5963 115.238 102.249 114.475C115.011 111.805 119.761 112.016 119.761 112.016L121.503 103.835C121.801 102.434 123.084 101.466 124.514 101.564L155.04 103.639C156.351 103.727 157.436 104.694 157.676 105.986L159.319 114.863L186.149 117.063C189.077 117.847 182.956 123.238 183.063 126.267L183.542 140.244Z" fill="#7194D0"/>
<path d="M155.806 114.374C156.095 114.393 156.313 114.644 156.294 114.933C156.276 115.19 156.076 115.391 155.829 115.419L155.734 115.421L128.247 113.554C127.958 113.534 127.739 113.284 127.759 112.994C127.777 112.737 127.976 112.536 128.224 112.508L128.318 112.506L155.806 114.374Z" fill="#4E5C93"/>
<path d="M95.2587 121.343C95.5472 121.371 95.7586 121.628 95.7308 121.916L95.5243 124.223C95.4627 124.944 95.3995 125.711 95.3359 126.517C95.0634 129.972 94.8384 133.431 94.695 136.665L94.6467 137.827C94.4772 142.206 94.4887 145.736 94.7216 148.124C94.9837 150.812 96.375 155.439 98.6128 161.432C98.9945 162.454 99.3977 163.508 99.8199 164.587C100.788 167.063 101.821 169.588 102.872 172.075L103.892 174.463L105.043 177.098L105.411 177.93L105.46 178.052L114.144 211.263L114.154 211.482L112.59 220.833L113.105 220.973L113.98 221.2L115.025 221.459C116.287 221.765 117.697 222.084 119.249 222.409C136.681 226.053 157.058 227.625 178.48 225.284L179.288 225.193L179.563 222.298L180.779 210.38L182.392 194.965L182.473 194.735L182.82 194.182L183.17 193.607C183.353 193.304 183.548 192.977 183.751 192.628C184.721 190.968 185.707 189.156 186.647 187.256C188.039 184.446 189.209 181.69 190.07 179.078C190.925 176.487 191.449 174.116 191.591 172.022C191.942 166.86 191.514 162.872 190.224 158.666C189.601 156.633 188.773 154.516 187.562 151.796L186.933 150.409L182.966 141.923L182.917 141.686L183.177 133.084C183.186 132.794 183.428 132.566 183.717 132.575C183.975 132.583 184.184 132.775 184.221 133.021L184.226 133.116L183.97 141.591L187.565 149.276L188.271 150.812L188.762 151.914C189.86 154.413 190.633 156.418 191.228 158.358C192.556 162.689 192.998 166.806 192.638 172.094C192.489 174.284 191.947 176.738 191.067 179.407C190.189 182.07 189 184.871 187.588 187.722C186.772 189.37 185.923 190.952 185.079 192.428L184.658 193.158C184.383 193.629 184.124 194.061 183.887 194.45L183.423 195.197L180.85 219.97C180.534 223.106 180.342 225.102 180.301 225.702C180.284 225.954 180.09 226.159 179.838 226.188C157.84 228.742 136.904 227.172 119.034 223.436C117.248 223.063 115.646 222.696 114.24 222.347L113.114 222.061L111.906 221.734C111.883 221.727 111.863 221.721 111.847 221.716C111.623 221.651 111.474 221.449 111.469 221.224L111.476 221.126L113.099 211.42L104.474 178.401L103.786 176.849L103.152 175.396C103.005 175.057 102.854 174.706 102.699 174.346C101.373 171.259 100.057 168.076 98.8423 164.969L98.2207 163.363C98.1196 163.099 98.0197 162.836 97.9211 162.576L97.6294 161.799C95.3599 155.721 93.9508 151.035 93.6769 148.226C93.4284 145.679 93.4258 141.913 93.6199 137.234L93.6463 136.618C93.7698 133.835 93.9533 130.887 94.1753 127.92L94.2895 126.435C94.3692 125.424 94.4483 124.474 94.5244 123.601L94.6858 121.816C94.7137 121.527 94.9701 121.316 95.2587 121.343Z" fill="#4E5C93"/>
<path fill-rule="evenodd" clip-rule="evenodd" d="M172.77 244.707C174.55 239.639 172.027 234.069 167.046 232.061L70.8793 193.323C61.9245 190.054 52.0237 194.734 48.8672 203.729C45.6828 212.803 50.6016 222.718 59.7519 225.675L160.84 251.123C165.877 252.391 171.051 249.609 172.77 244.707Z" fill="#FFC999"/>
<path fill-rule="evenodd" clip-rule="evenodd" d="M54.3919 224.334L54.6751 224.506C62.4019 229.175 72.3056 226.233 76.7964 217.932L119.944 138.16C124.433 129.859 121.81 119.342 114.083 114.673L113.8 114.501C106.073 109.83 96.1693 112.774 91.6786 121.075L48.5324 200.847C44.0417 209.148 46.6653 219.663 54.3919 224.334Z" fill="#FFC999"/>
<path fill-rule="evenodd" clip-rule="evenodd" d="M71.674 155.245L91.2018 120.594C95.9089 112.241 106.594 109.258 114.95 113.965C123.302 118.672 126.284 129.358 121.577 137.711L102.235 172.034L71.674 155.245Z" fill="#7194D0"/>
<path d="M117.72 142.124C117.861 141.871 118.181 141.78 118.434 141.921C118.659 142.047 118.756 142.313 118.676 142.549L118.637 142.635L102.254 172.042C102.129 172.266 101.864 172.363 101.629 172.284L101.543 172.246L70.9832 155.457C70.7292 155.318 70.6364 154.999 70.7759 154.745C70.9 154.519 71.1659 154.42 71.4019 154.499L71.4887 154.537L101.59 171.075L117.72 142.124Z" fill="#4E5C93"/>
<path fill-rule="evenodd" clip-rule="evenodd" d="M178.464 260.673C178.464 260.673 160.293 256.647 158.647 245.799C157.156 235.972 166.776 233.303 166.776 233.303C166.776 233.303 175.921 229.134 187.087 228.748C194.442 228.495 208.482 229.431 209.137 233.276C209.992 238.291 194.165 236.307 193.654 239.974C193.13 243.735 196.37 244.388 203.248 248.294C207.546 250.736 212.745 251.451 215.995 254.217C222.347 259.62 205.216 268.983 178.464 260.673Z" fill="#FFC999"/>
<path d="M193.194 249.708C193.445 249.45 193.857 249.444 194.115 249.694L194.338 249.897C194.468 250.011 194.641 250.157 194.856 250.329C195.49 250.837 196.25 251.379 197.134 251.933C201.52 254.679 207.044 256.594 213.668 256.974C214.027 256.995 214.301 257.303 214.281 257.662C214.26 258.021 213.952 258.295 213.593 258.274C206.738 257.881 201.006 255.893 196.443 253.036C195.516 252.456 194.715 251.884 194.042 251.345L193.723 251.085C193.484 250.885 193.312 250.73 193.208 250.628C192.95 250.378 192.944 249.965 193.194 249.708Z" fill="#DD936F"/>
<path d="M188.952 255.142C189.146 254.839 189.548 254.751 189.851 254.944C194.484 257.905 199.755 259.494 204.764 260.109L205.423 260.183C205.633 260.204 205.833 260.223 206.023 260.238L206.685 260.283C206.75 260.286 206.801 260.288 206.838 260.289C207.197 260.299 207.481 260.598 207.471 260.958C207.461 261.317 207.162 261.601 206.803 261.591L206.509 261.578C206.422 261.573 206.322 261.566 206.208 261.558C205.738 261.525 205.202 261.474 204.606 261.401C199.42 260.765 193.971 259.122 189.15 256.042C188.847 255.848 188.758 255.446 188.952 255.142Z" fill="#DD936F"/>
<path d="M182.684 257.741C182.908 257.459 183.317 257.413 183.598 257.637L183.715 257.724C183.79 257.778 183.891 257.848 184.018 257.933L184.154 258.022C184.648 258.342 185.256 258.693 185.983 259.064C189.012 260.61 193.016 261.975 198.077 262.922C198.431 262.989 198.664 263.329 198.598 263.682C198.531 264.036 198.191 264.269 197.838 264.202C192.654 263.232 188.531 261.827 185.391 260.224C184.752 259.898 184.197 259.584 183.722 259.289L183.446 259.115C183.121 258.904 182.902 258.747 182.787 258.656C182.506 258.432 182.46 258.022 182.684 257.741Z" fill="#DD936F"/>
<path d="M227.853 187.757C228.117 187.538 228.509 187.573 228.728 187.837C228.924 188.072 228.917 188.407 228.728 188.633L228.648 188.712L215.073 200.016C214.809 200.236 214.417 200.2 214.198 199.936C214.002 199.702 214.009 199.366 214.198 199.14L214.277 199.061L227.853 187.757Z" fill="#DD936F"/>
<path fill-rule="evenodd" clip-rule="evenodd" d="M90.8274 669.648L157.286 670.421C157.915 670.429 158.431 669.922 158.44 669.293L158.535 661.822C158.544 661.19 158.04 660.674 157.408 660.667L90.9523 659.894C90.3225 659.885 89.8049 660.392 89.7974 661.023L89.6999 668.492C89.6925 669.124 90.1977 669.64 90.8274 669.648Z" fill="#192F55"/>
</g>
<defs>
<clipPath id="clip0">
<rect width="341.637" height="686.702" fill="white" transform="translate(8.04199 0.255371) rotate(0.642441)"/>
</clipPath>
</defs>
</svg>